<svg width="34" height="34" fill="none" xmlns="http://www.w3.org/2000/svg"><path d="M16.15 31.45V23.5c-1.967-.067-3.658-.742-5.075-2.025C9.658 20.192 8.816 18.6 8.55 16.7c-2.167-.2-4-1.038-5.5-2.515C1.55 12.707.8 10.912.8 8.8v-.5c0-.917.329-1.704.987-2.363.659-.658 1.446-.987 2.363-.987h4.1v-1.4c0-.717.28-1.354.842-1.912C9.652 1.079 10.289.8 11 .8h12c.71 0 1.347.28 1.908.842.561.561.842 1.197.842 1.908v1.4h4.1c.916 0 1.704.33 2.362.987.659.659.988 1.446.988 2.363v.5c0 2.112-.75 3.907-2.25 5.384-1.5 1.478-3.334 2.316-5.5 2.516-.267 1.9-1.108 3.492-2.525 4.775-1.417 1.283-3.092 1.958-5.025 2.025v7.95h5.3c.238 0 .448.087.629.26.18.174.27.38.27.617 0 .236-.09.441-.27.614a.884.884 0 0 1-.63.259H10.8a.796.796 0 0 1-.592-.27.88.88 0 0 1-.257-.624c0-.237.086-.44.257-.606a.824.824 0 0 1 .593-.25h5.35Zm-7.9-16.6V6.7h-4.1c-.467 0-.85.158-1.15.475-.3.317-.45.692-.45 1.125v.5c0 1.6.55 2.967 1.65 4.1 1.1 1.133 2.45 1.783 4.05 1.95Zm8.773 6.9c1.868 0 3.481-.681 4.84-2.044 1.358-1.362 2.037-2.981 2.037-4.856V4.15c0-.467-.159-.85-.475-1.15a1.58 1.58 0 0 0-1.125-.45H11.7c-.433 0-.808.15-1.125.45-.317.3-.475.683-.475 1.15v10.7c0 1.875.687 3.494 2.06 4.856 1.375 1.363 2.996 2.044 4.863 2.044Zm8.727-6.9c1.6-.167 2.95-.817 4.05-1.95 1.1-1.133 1.65-2.5 1.65-4.1v-.5c0-.433-.15-.808-.45-1.125-.3-.317-.683-.475-1.15-.475h-4.1v8.15Z" fill="#5D5F67"/></svg>