<svg width="115" height="32" fill="none" xmlns="http://www.w3.org/2000/svg"><g clip-path="url(#a)" fill="#F6F6F6"><path d="M49.368 15.076H40.92V8.978h-2.139v14.319h2.14v-6.218h8.447v6.218h2.139V8.978h-2.139v6.098ZM58.914 14.795c1.401 0 2.385.721 2.852 2.09h-5.737c.404-1.33 1.453-2.09 2.895-2.09m.001-1.765c-2.901 0-5.092 2.259-5.092 5.25a5.149 5.149 0 0 0 5.273 5.254c3.453 0 4.661-2.317 4.814-3.128l.022-.125h-1.983l-.03.06c-.025.051-.677 1.311-2.822 1.311-1.765 0-3.076-1.246-3.224-3.043h8.142V18.5c0-3.22-2.103-5.464-5.114-5.464M70.885 21.652c-1.887 0-3.207-1.387-3.207-3.369 0-1.981 1.32-3.37 3.207-3.37 1.888 0 3.172 1.384 3.172 3.37 0 1.986-1.303 3.37-3.172 3.37Zm3.131-7.03c-.494-.683-1.622-1.592-3.467-1.592-2.918 0-4.954 2.16-4.954 5.253s2.036 5.251 4.954 5.251a4.173 4.173 0 0 0 3.467-1.672v1.435h2.022V8.462h-2.022v6.16ZM83.521 14.795c1.4 0 2.386.721 2.85 2.09h-5.737c.404-1.33 1.454-2.09 2.899-2.09m0-1.765c-2.905 0-5.095 2.259-5.095 5.25a5.15 5.15 0 0 0 5.272 5.254c3.453 0 4.662-2.317 4.814-3.128l.022-.125h-1.983l-.028.06c-.027.051-.683 1.311-2.825 1.311-1.765 0-3.073-1.246-3.22-3.043h8.155V18.5c0-3.22-2.104-5.464-5.111-5.464M92.945 14.726v-1.458H90.92v10.026h2.025v-5.647c0-1.754.915-2.437 3.278-2.437h2.612v-2.022h-2.571c-2.002 0-2.912.888-3.309 1.538M107.818 18.281c0 1.954-1.292 3.371-3.071 3.371-1.779 0-3.15-1.385-3.15-3.37 0-1.987 1.303-3.37 3.159-3.37 1.855 0 3.07 1.419 3.07 3.37m-.042-3.653c-.395-.547-1.404-1.598-3.369-1.598-2.431 0-4.893 1.803-4.893 5.25 0 3.093 2.011 5.254 4.893 5.254a3.945 3.945 0 0 0 3.369-1.652v1.423h2.022V13.268h-2.022v1.361ZM111.765 13.566h.555v1.254h.207v-1.254h.555v-.192h-1.317v.192ZM114.681 13.374l-.479 1.142-.478-1.142h-.325v1.446h.197v-1.254l.529 1.261h.143l.524-1.25v1.243H115v-1.446h-.319ZM20.74 14.854h-8.97v2.291h8.97v-2.29Z"/><path d="M16.254.058C7.45.058.312 7.196.312 16S7.45 31.942 16.255 31.942 32.196 24.804 32.196 16 25.058.058 16.254.058ZM22.84 23.16h-2.1v-4.486h-8.97l-.002-.004v4.49h-2.1V8.841h2.1v4.489l.002-.002h8.97V8.842h2.1V23.16Z"/></g><defs><clipPath id="a"><path fill="#fff" transform="translate(.313 .058)" d="M0 0h114.688v31.883H0z"/></clipPath></defs></svg>